<svg width="55" height="55" viewBox="0 0 55 55" fill="none" xmlns="http://www.w3.org/2000/svg">
<path fill-rule="evenodd" clip-rule="evenodd" d="M27.5 55C42.6878 55 55 42.6878 55 27.5C55 12.3122 42.6878 0 27.5 0C12.3122 0 0 12.3122 0 27.5C0 42.6878 12.3122 55 27.5 55Z" fill="white"/>
<g clip-path="url(#clip0)">
<path d="M37.3845 36.7696H36.7282V24.6291C36.7282 24.2894 36.4528 24.0139 36.113 24.0139H33.6521C33.3123 24.0139 33.0369 24.2894 33.0369 24.6291V36.7696H31.8064V28.7306C31.8064 28.3909 31.531 28.1154 31.1912 28.1154H28.7303C28.3905 28.1154 28.1151 28.3909 28.1151 28.7306V36.7696H26.8846V30.9865C26.8846 30.6467 26.6092 30.3713 26.2694 30.3713H23.8085C23.4687 30.3713 23.1933 30.6467 23.1933 30.9865V36.7696H21.9628V32.463C21.9628 32.1233 21.6874 31.8478 21.3476 31.8478H18.8867C18.5469 31.8478 18.2715 32.1233 18.2715 32.463V36.7696H17.6152C17.2755 36.7696 17 37.0451 17 37.3848C17 37.7246 17.2755 38.0001 17.6152 38.0001H37.3845C37.7243 38.0001 37.9997 37.7246 37.9997 37.3848C37.9997 37.0451 37.7243 36.7696 37.3845 36.7696Z" fill="#0F53FA"/>
<path d="M17.6152 30.2194C21.455 30.2194 25.6189 28.8404 29.34 26.3364C32.2544 24.3753 34.6837 21.87 36.1928 19.3046L36.7903 21.5345C36.8639 21.8093 37.2196 22.0468 37.5437 21.9695C37.8742 21.8906 38.0667 21.5442 37.9788 21.216L36.9713 17.4561C36.8833 17.128 36.5461 16.9331 36.2178 17.0211L32.458 18.0286C32.1298 18.1165 31.935 18.4539 32.023 18.7821C32.1109 19.1103 32.4481 19.3051 32.7764 19.2171L35.1986 18.5681C33.7907 21.0144 31.464 23.424 28.6531 25.3156C25.1328 27.6844 21.2129 28.989 17.6152 28.989C17.2755 28.989 17 29.2645 17 29.6042C17 29.944 17.2755 30.2194 17.6152 30.2194Z" fill="#87A9FD"/>
</g>
<defs>
<clipPath id="clip0">
<rect width="21" height="21" fill="white" transform="translate(17 17)"/>
</clipPath>
</defs>
</svg>
